# xmcd
#
# Track frame offsets:
#	150
#	28890
#	58365
#	91507
#	112287
#	132982
#	159374
#	180208
#	201127
#	221925
#	256927
#	280725
#
# Disc length: 4322 seconds
#
# Revision: 0
# Processed by: cddbd v1.4PL0 Copyright (c) Steve Scherf et al.
# Submitted via: audiograbber 1.80.04
#
DISCID=ae10e00c
DTITLE=D.J. TRUEPYRE - HOUSE GROOVES
DYEAR=1900
DGENRE=
TTITLE0=CAN`T SPEAK OF THE JOY
TTITLE1=CAN`T SPEAK OF THE JOY ~2
TTITLE2=RAIN
TTITLE3=SET ME FREE
TTITLE4=LOVE FEELIN`
TTITLE5=AINT MY FULT
TTITLE6=IT`S GETTING BIGGER
TTITLE7=FEAKOUT
TTITLE8=MY PIECE OF HEAVE
TTITLE9=WATCH THEM COME
TTITLE10=DEEP FAT SOUND
TTITLE11=U GAVE ME FLOWERS
EXTD=
EXTT0=
EXTT1=
EXTT2=
EXTT3=
EXTT4=
EXTT5=
EXTT6=
EXTT7=
EXTT8=
EXTT9=
EXTT10=
EXTT11=
PLAYORDER=
